<?xml version="1.0" encoding="UTF-8"?>
<svg id="Layer_1" data-name="Layer 1" xmlns="http://www.w3.org/2000/svg" viewBox="0 0 250.67 51.51">
  <defs>
    <style>
      .cls-1 {
        fill: #285529;
      }
    </style>
  </defs>
  <path class="cls-1" d="M1.23,41.84c-.77.41-1.02-.82-1.23-1.44.77.07.87.89,1.23,1.44ZM13.85.19c1.12.41,1.94,1.23,2.3,2.88l.92,3.91c.31,1.1,0,2.13-.1,3.16-.05.48-.56.48-.77.96-.21.69-.56,1.3-.82,1.99-.31-.14-.26-.62-.46-.82-.36.14-.15.75-.46.96-.05.07-.1.07-.15-.07-.82-1.44-1.28-3.02-1.02-4.87.15-.96.05-1.85-.15-2.81-.26-1.3-1.58-2.88-2.5-2.4-.51.21-1.02.55-1.53.82-.56.34-.87,1.1-1.12,1.78-.26.69-.46,1.92-.77,2.54-.51.76-.51,2.74.1,3.36,1.53,1.72,2.55,3.98,3.73,5.97.92,1.65,2.04,2.95,3.17,4.25.92,1.17,1.79,2.47,2.5,3.91.26.55.61,1.17.97,1.65,1.23,1.58,1.18,3.77,1.63,5.83.31,1.44.21,2.95.26,4.46,0,.69-.05,1.44-.61,1.85-.31.21-.26.55-.31.89-.26,1.78-.82,3.43-1.53,4.94-.31.62-.72,1.17-1.28,1.23-.26.07-.41.27-.56.48-.51.89-1.28,1.44-1.99,1.92-.2.14-.41.34-.61.21-.61-.34-1.12,0-1.63.34-1.53,1.17-4.09.27-6.28-1.51-.21-.21-3.22-4.05-3.32-4.25-1.07-1.99,1.63,1.65.61-.48-.2-.48-.46-1.3-.41-1.92,0-.82-.51-1.23-.77-1.85-.1-.27-.36-.41-.41-.82.21-.21.72-.55,1.02-.14.41.62.51.27.82.48.31.27.36.41.77.82.56.62.66,1.23,1.02,1.78.51.96,1.07,1.17,1.84,1.65,1.79.96,3.58,3.02,5.16.82.97-1.37,1.18-2.81,1.18-4.53-.05-1.78-.31-3.43-.61-5.08-.05-.41-.2-.76-.36-1.03-1.94-3.64-3.53-6.72-5.98-9.61-1.28-1.37-2.81-3.77-3.27-5.9-.2-1.1-.72-2.06-.82-3.16-.05-.62-.1-1.23.05-1.78.41-1.92.61-3.98,1.18-5.83.77-2.68,2.15-4.6,3.88-6.18.51-.48,1.07-.62,1.74-.48.92.21,1.79-.27,2.71-.41,1.02-.14,2.04-.21,3.07.07ZM8.38,24.75c.15-.07-.41-1.51-.77-2.06-.51-.96-1.07-1.23-1.17-1.71-.72-.62-1.28-1.51-2.1-1.78.92,2.06,2.76,4.19,4.04,5.56Z"/>
  <path class="cls-1" d="M28.56,10.28c.31,1.37.46,3.02.66,4.53,1.07-.14,1.48,0,2.04-.21.36-.07,2.3-.41,1.18,0,0,.21,1.74-.27,2.15-.27.61,0,2.35.55,1.43,1.1-.36.21.66.41.92.76-.72,1.03-2.3,1.03-3.42,1.3-.36.07-.97-.07-1.63.07-.26.07-1.28.34-1.69.28-.77-.14-.82.07-.77,1.1.05,2.54.36,4.94.46,7.41.1,2.13.26,4.25.15,6.31-.05,2.54.31,4.94.46,7.41.05,1.44.2,2.88.31,4.32.1,1.03.61,1.65,1.17,2.2.15.21.31.21.51.07l1.02-.69c1.43-.96,2.66-2.33,3.32-2.33.41,0,.2,1.51-.61,2.13-.77.62-1.02,1.44-1.63,1.99-.77.69-.82,1.03-1.63,1.44-.2.07-.51.28-.72.48-1.07,1.17-1.79,1.23-3.27,1.1-.31,0-.56-.34-.92.07-.15.21-.31-.14-.41-.34-.21-.55-.36-1.1-.56-1.65-.1-.34-.15-.69-.51-.48-.2.14-.26,0-.36-.21-.66-1.23-1.12-2.54-1.33-4.12-.2-1.99-.2-3.98-.2-5.97.05-3.36-.1-6.79.05-10.15.15-2.81.26-5.56.36-8.37,0-.41.1-.89-.1-1.44-.71.21-2.61.27-2.61-.14.51-.07,1.43-.48,2.04-.55-.77-.34-1.84.07-2.45.14-1.07,0-1.38-.07-1.38-1.65,1.07-.14,2.81-.69,3.93-.82.36,0,.31-.07.31-.55.05-.76.05-1.51,0-2.26-.1-1.03.1-2.06.26-3.16.36-.34.15,1.44.51,2.2.36-1.1.31-2.13.2-3.16-.05-.89.1-1.51.72-1.99,1.23.89,1.69,2.54,2.04,4.12ZM29.43,46.02c0,.28.26.21.31.41.15.48,1.33.96.66.07-.56-.76-1.07-2.54-1.28-2.54-.1,0,.31,1.92.31,2.06Z"/>
  <path class="cls-1" d="M41.94,23.24c0,.14.05.34.1.48,0,.07.05.14.1.27.66-.69,1.28-1.44,1.94-2.13,1.28-1.3,2.4-1.58,3.88-1.1.82.28,1.63.89,2.25,1.92-.26.69-.72.76-1.12.48-.36-.21-.56-.21-.77.14-.36.55-.92.21-1.18.96l-.31.34c-1.48.76-2.5,1.85-3.22,3.91-.26.82-.15,1.58-.56,2.33-.31.48-.41,1.03-.36,1.78.05,1.23.1,2.54.1,3.77.05,2.74.26,5.42.31,8.1.05,1.17,0,2.26,0,3.43,0,.62-.72,2.81-.97,3.16-.66-1.1-1.23-1.17-1.99-.14-.36.48-.56-.14-.82-.07-.21.21,0,.41-.05.62h-.2c-1.02-1.37-1.48-3.02-1.48-5.01.1-2.88-.1-5.76-.31-8.71-.1-1.3-.05-2.54.05-3.84.2-1.71.2-3.43.15-5.14,0-.76.1-1.51.1-2.26.05-1.37,0-2.68-.26-3.98-.1-.21-.1-.55.15-.62.26-.14.26.28.41.41.46-.34.31-.96.31-1.51.41-.41.92-.34,1.23-.89.1-.21.31-.14.46,0,.97.75,1.99,1.44,2.04,3.29ZM49.86,24.68c-.05.07-.15.14-.15.07-.82-.41-1.43-.27-2.04.21-.36.41-.77.76-1.33.82.15-.55.51-.62.72-.89l.31-.34c.31-.07.51-.41.87-.69.82-.41,1.12-.27,1.63.82Z"/>
  <path class="cls-1" d="M76.63,20.02c.15.34.46.48.77.55,1.17.34,1.58,1.23,2.09,2.61.72,1.92.51,1.23.31,3.36-.05.62-.26,1.23-.51,2.33-.2.89-1.28,1.37-1.79,2.06-.41.41-1.23,1.51-1.63,1.78-1.23.69-1.38,1.51-2.45,2.54-.51.41-1.07.75-1.74,1.58.56.96.61,1.65.82,2.61.36,1.51,1.02,2.95,1.84,4.05,1.12,1.51,2.61,1.51,4.04,1.58.41,0,.66-.21,1.02-.48.77-.76,1.18-1.44,2.25-2.2.56-.34.97-.89,1.43-1.37.61-.62,1.33-1.03,2.04-1.17.15,0,.31.07.36.27.05.27-.05.48-.15.55-.31.27-1.38,1.44-1.63,1.71-.66.76-1.43,1.78-2.09,2.47-.82.76-1.43,1.72-1.79,2.2-.56.69-1.69.96-2.35,1.65-.36.41-.92.41-1.43.27-.56-.14-1.07-.07-1.63-.14-1.58-.07-3.12-.48-4.24-2.26-.1-.21-.26-.41-.41-.48-1.43-1.1-1.94-2.88-2.2-4.94l-.1-.34c0-.07,0-.41-.05-.48-.26-.14-.41.48-.56.62-1.12,1.1-1.79,1.92-2.2,3.09-.2.62-1.02,1.1-1.43,1.51-.41.41-.77,1.3-1.28,1.17-.26,0-.46.21-.56.48-.56,1.44-2.2,1.72-3.22,2.27-1.53.75-2.4,0-3.88-.76-.2-.07-.41-.27-.56-.48-1.48-1.85-2.35-3.91-2.86-6.59-.05-.27-.15-.48-.15-.75,0-.34-.15-1.51-.15-2.13.2-2.26.1-2.2.1-3.09,0-1.85,0-4.25.15-6.11.15-2.47.82-4.73,2.04-6.86.56-.96.82-1.03,1.89-.41l.31-.76c.15-.48.41-.69.77-.34.41.41.77.14,1.28-.07,1.43-.76,2.86-.96,4.24.21.41.27.92.41,1.33.55.36.14.66.34.92.76.31.34.51.69.36,1.23-.15.41,0,.96.05,1.37.41,1.85,0,3.64-.46,5.28-.26,1.17-.72,2.06-1.43,2.81-.31.27-.56.62-.77.96-.31.48-.87.69-1.48,1.23-.41.34-2.2,1.85-3.27,2.81-.31.28-.41.48-.31.89.41,1.3.56,2.13.97,2.88.1.21.15.48.26.62.82.62,1.12,1.23,1.94,1.72.51.27,1.07.07,1.53-.21,1.43-.76,2.09-1.65,3.37-2.81,1.23-1.23,1.63-2.26,2.55-3.29.41-.41.36-.48.41-1.03.15-2.33-.1-4.73.21-7.07.2-1.23.56-2.4.82-3.64.15-.75.26-1.58.56-2.33.66-1.78,1.58-3.29,2.91-4.18.66-.41,4.96-1.17,2.4,0-.15.07-.05.48.1.41.56-.34.66.34,1.17-.48.21-.21.82-.34,1.18.21ZM56.86,23.65c-.66.82-.92,1.65-.87,2.81,0,.34-.1.69-.15,1.1-.46,2.33-.51,6.11-.1,8.64.92-1.23,2.04-1.78,2.96-3.15.1-.14.2-.21.31-.28.21-.21.15-.41.31-.75.56-1.1.36-3.09.66-4.05.2-.48.2-.96.2-1.44.05-1.44-.61-2.4-.92-3.64-.05-.14-.21-.27-.31-.21-.77.21-1.43.07-2.09.96ZM61.35,26.95c.41-.62.36-1.1,0-1.72v1.72ZM73.72,22.35c-.05.34-.26.62-.36.89-.36.96-.92,1.99-1.12,3.09l-.77,4.94c-.1.96-.31,1.58-.1,2.81,1.23-1.51,2.2-2.61,2.71-3.64.72-1.51.72-1.92.97-2.61.2-.62.26-1.17.36-1.65.31-1.44,0-2.54-.2-3.57-.15-.82-.26-1.1-.31-1.1-.56-.07-1.02.07-1.18.82Z"/>
  <path class="cls-1" d="M87.82,10.28c.31,1.37.46,3.02.66,4.53,1.07-.14,1.48,0,2.04-.21.36-.07,2.3-.41,1.17,0,0,.21,1.74-.27,2.15-.27.61,0,2.35.55,1.43,1.1-.36.21.66.41.92.76-.72,1.03-2.3,1.03-3.42,1.3-.36.07-.97-.07-1.63.07-.26.07-1.28.34-1.69.28-.77-.14-.82.07-.77,1.1.05,2.54.36,4.94.46,7.41.1,2.13.26,4.25.15,6.31-.05,2.54.31,4.94.46,7.41.05,1.44.2,2.88.31,4.32.1,1.03.61,1.65,1.18,2.2.15.21.31.21.51.07l1.02-.69c1.43-.96,2.66-2.33,3.32-2.33.41,0,.2,1.51-.61,2.13-.77.62-1.02,1.44-1.63,1.99-.77.69-.82,1.03-1.63,1.44-.2.07-.51.28-.72.48-1.07,1.17-1.79,1.23-3.27,1.1-.31,0-.56-.34-.92.07-.15.21-.31-.14-.41-.34-.21-.55-.36-1.1-.56-1.65-.1-.34-.15-.69-.51-.48-.2.14-.26,0-.36-.21-.66-1.23-1.12-2.54-1.33-4.12-.2-1.99-.2-3.98-.2-5.97.05-3.36-.1-6.79.05-10.15.15-2.81.26-5.56.36-8.37,0-.41.1-.89-.1-1.44-.72.21-2.61.27-2.61-.14.51-.07,1.43-.48,2.04-.55-.77-.34-1.84.07-2.45.14-1.07,0-1.38-.07-1.38-1.65,1.07-.14,2.81-.69,3.93-.82.36,0,.31-.07.31-.55.05-.76.05-1.51,0-2.26-.1-1.03.1-2.06.26-3.16.36-.34.15,1.44.51,2.2.36-1.1.31-2.13.2-3.16-.05-.89.1-1.51.72-1.99,1.23.89,1.69,2.54,2.04,4.12ZM88.68,46.02c0,.28.26.21.31.41.15.48,1.33.96.66.07-.56-.76-1.07-2.54-1.28-2.54-.1,0,.31,1.92.31,2.06Z"/>
  <path class="cls-1" d="M99.97,6.64c.31.55.61,1.17,1.07,1.65.15.14.2.48.26.76.15,1.71.51,3.36.46,5.08-.15,3.43.1,6.86,0,10.29,0,.14,0,.27.2.41,1.58-1.92,3.42-2.95,5.42-3.7,1.07-.41,2.04-.14,2.55,1.23.36.07.15-.62.51-.48.21.14.36.28.36.55,0,.48.05.96.2,1.37.1.27.15.62.41.69.56.14.61.75.66,1.23.31,3.02.41,6.11.15,9.12,0,.14-.05.27,0,.34.36,1.51.05,3.02-.1,4.46-.21,1.58-.36,3.09-.87,4.6-.46,1.37-1.07,2.54-1.79,3.7-.61.96-1.33,1.44-2.15,1.78-.21.07-.46.21-.66.07-.77-.62-1.63-.48-2.4-1.03-.31-.21-.46-.48-.66-.76-.36-.55-.56-1.37-1.07-1.85-.46,1.17.1,2.47-.46,3.5-.51.14-.41-.62-.72-.82-.05.41,0,.82-.31,1.17-.87-.76-1.58-1.99-2.61-2.54-.26.27,0,.82-.36,1.1-.56-.41-.82-1.03-.77-1.92.1-1.3-.2-2.54-.2-3.84-.1-3.29-.15-6.59,0-9.88.05-1.37,0-2.74,0-4.12.05-4.74.05-9.47.05-14.13,0-2.06-.05-4.05,0-6.04,0-1.23.05-1.23.87-1.58.41-.14.82-.41,1.18-.69.36-.21.56-.14.77.27ZM104.62,24.48c-.77.75-1.48,1.65-2.09,2.61-.51.76-.72,1.58-.72,2.54,0,2.33.36,4.6.26,6.93-.05,1.51.31,2.95.26,4.46-.05,1.1,0,2.2,0,3.36.82.34,1.58,1.03,2.5,1.58.51-1.03.97-1.99,1.23-3.02.66-2.2.92-4.53,1.12-6.86.31-3.16.41-6.38.36-9.6,0-.76-.15-1.51-.2-2.27-.05-.27-.1-.55-.36-.55-.82.14-1.69.14-2.35.82Z"/>
  <path class="cls-1" d="M128.84,21.8c.82,1.17,1.17,2.47.87,3.98v.41c.31,1.78.2,3.09,0,4.94-.1.55.1,1.1.1,1.65.05,2.33.15,4.74.05,7.07,0,.89-.26,2.4-.31,3.29-.05.69.1,1.65.26,2.33.77.14,1.23-.21,1.84-.89,1.74-.82,3.78-3.91,4.65-4.6.05.82-.2,1.78-.87,2.88-.51.75-2.04,2.33-2.61,3.02-.77.89-1.84,1.85-2.71,2.54-.92.82-1.89,1.17-3.37,1.1-.51,0-.77-.62-1.02-1.1-.26-.62-.46-1.03-.77-1.51-.26,0-.41.21-.51.41-.1.21-.26.55-.41.55-.66.07-.82.76-1.53,1.17-.77.41-1.07,0-1.84.07-.31,0-.56.27-.05.27,1.17,0-.2.55-1.74.41-.72-.07-2.25-.62-2.66-1.3-1.12-1.92-1.38-2.4-1.43-4.05l-.1-2.68c-.1-2.68.66-4.53,1.53-6.04,1.02-1.85,2.3-2.88,3.98-3.43.82-.34,1.69-.48,2.45-1.03.56-.34,1.02.27,1.63,0,.2-1.85,0-5.21-.1-7.07,0-1.1-.26-1.37-1.02-.96-1.53.82-2.55,1.1-4.24,1.17-.15.07-.36,0-.46.14-1.02.96-1.69-.41-2.5-.48-.05-.48.1-.48.21-.48,1.33-.48,2.66-1.17,3.53-1.3,1.12-.21,1.99-.89,3.07-1.37.51-.21.71-.34,1.23-.48.61-.07,1.12.07,1.63.48.51.34.97.82,1.58.75.15-.48-.1-.48-.41-.75-.41-.07-.61-.48-.26-.48.77,0,1.74.62,2.3,1.37ZM116.12,46.36c.36.27.46.82.77,1.1.36.27.51.96,1.18.89-.56-.89-1.12-1.65-1.48-2.61-.1-.27-.51-1.23-.51-.27,0,.34-.26.69.05.89ZM123.63,33.6c-.21.34-.26.55-.51.55-.15,0-.26-.07-.56.27-.51.55-.56.75-1.07,1.23-.51.48-.92,1.1-1.12,1.85-.92,3.02-.72,6.59.05,7.55.56.69.87,1.3,1.53.96.46-.21,1.58-1.1,2.04-1.3.31-.14.36-.62.36-1.1,0-.34-.05-.75,0-1.23.1-1.23-.31-2.33-.1-4.39.1-.96-.1-1.78.05-2.74.15-.82.05-1.24.05-2.13-.21.07-.61.27-.72.48Z"/>
  <path class="cls-1" d="M149.63,21.8l.2.28c.26,1.37.87,2.61.92,4.18,0,3.29,0,6.59-.21,9.81-.1,1.65.05,3.29,0,4.87-.05,1.23.31,2.4.51,3.57.1.69,1.58,1.44,1.99,1.03,1.79-1.65,3.22-2.81,5.01-4.46.15-.14.26-.21.46,0-.26.89-.51,2.4-1.28,2.88-.87.62-1.74,1.37-2.3,2.61-.41.89-.82,1.17-1.53,1.65-.56.76-.82.89-1.63,1.24-.36.34-.72.75-1.33.82-1.43.14-2.71-.62-3.42-2.33-.82-1.78-1.12-3.77-1.17-5.76-.1-2.26-.1-4.46-.05-6.72,0-3.5.05-6.66.61-10.09.15-.96.05-1.44-.05-2.4s-.66-1.51-1.33-.62c-1.84,2.33-3.12,4.39-3.99,7.62-.51,2.06-.46,4.05-.31,6.04.05.82.05,1.65,0,2.47-.15,3.09-.36,6.24-.26,9.33,0,.76-.2,1.03-.82,1.23-.26.14-.41.34-.56.48-.72.69-1.28.55-1.79-.55-.15-.34-.31-.82-.61-1.03-.26.21-.1.55-.2.82-.46-.27-.56-.82-.72-1.37-.41-1.58-.77-3.16-.72-4.87,0-3.16-.05-6.24-.05-9.4v-12.08c0-.96.05-.96.72-.82.26.07.51.14.77,0,.46-.27.92-.07,1.23.27.46.48.97.82,1.43,1.3.51.55.72,1.23.66,2.13-.05,1.37.15,2.68.36,4.05.36-.34.46-.76.56-1.1.51-1.85,1.38-3.43,2.25-4.94,1.02-1.65,2.25-2.13,3.83-1.78,1.12.21,1.89,1.1,2.81,1.65Z"/>
  <path class="cls-1" d="M161.12,20.22c-.1.48-.97.34-1.07.82.2.27.46.14.66-.07,1.12-.82,1.99-1.17,3.37-.48.26.14.56.27.77.41.51.34.61.34,1.02.69l.56.48c.72.62,1.69,3.43,1.84,5.63.1,1.65,0,2.74-.41,4.39-.2.69-.31,1.51-.97,1.78-.2.07-.2.28-.26.48-.82.62-1.23,1.3-2.4,1.92-.56.27-1.02.69-1.53.96-.72.34-1.28.96-2.1,1.58.41,1.58.61,3.09,1.28,4.39.41.75.77.89,1.17,1.65.56,1.03,1.07,1.23,1.94.82,2.55-1.3,3.42-1.1,5.72-3.22.77-.69.77-.96,1.69-1.3.51-.27.82-.62,1.28-1.03.15-.14.31-.41.61-.27.15,1.51-.51,1.65-1.07,2.33-.26.27-.51.41-.72.89-.51.69-2.45,2.33-2.66,2.47-1.12.76-.66.34-1.69,1.37-.26.21-1.02.76-1.28,1.03-.82.76-1.69.76-2.1,1.17-.97.96-2.5.96-3.68,1.03-.72,0-1.63-.34-2.3-1.23-1.23-1.58-2.15-3.02-2.66-5.15-.1-.27-.1-.48-.15-.69-.21-1.1-.41-1.58-.46-2.68,0-.55-.05-2.47-.1-3.64-.1-2.13.1-5.42.46-7.48.41-2.47.82-4.94,1.99-7,.66-1.1,1.43-1.85,2.45-2.13.15,0,.66-.21.77.07ZM159.54,44.51c.56,1.23,1.07,2.47,2.1,3.09.05-.14.1-.21.15-.27-.41-.69-.77-1.44-1.23-2.06-.51-.69-.56-1.65-.97-2.47-.36.62-.31,1.17-.05,1.72ZM161.33,23.45c-.56.96-.77,2.81-.82,3.98-.15,2.4.1,4.94-.1,7.27,0,.48-.05,1.17.05,1.72.36-.07.87-.82,1.07-.96.77-.69,1.33-1.44,1.99-1.99.87-.76.77-1.78,1.02-3.36.05-.21.05-.76.1-.96.15-.96,0-2.33-.15-2.95-.26-1.03-.41-1.58-.51-2.33-.1-.55-.31-1.23-.61-1.44-1.12-.69-1.33-.27-2.04,1.03ZM162.86,47.46c-.2-.62-.46-.89-.82-.96.15.48.31.82.82.96Z"/>
  <path class="cls-1" d="M176.96,23.24c0,.14.05.34.1.48,0,.07.05.14.1.27.66-.69,1.28-1.44,1.94-2.13,1.28-1.3,2.4-1.58,3.88-1.1.82.28,1.63.89,2.25,1.92-.26.69-.72.76-1.12.48-.36-.21-.56-.21-.77.14-.36.55-.92.21-1.18.96l-.31.34c-1.48.76-2.5,1.85-3.22,3.91-.26.82-.15,1.58-.56,2.33-.31.48-.41,1.03-.36,1.78.05,1.23.1,2.54.1,3.77.05,2.74.26,5.42.31,8.1.05,1.17,0,2.26,0,3.43,0,.62-.72,2.81-.97,3.16-.66-1.1-1.23-1.17-1.99-.14-.36.48-.56-.14-.82-.07-.21.21,0,.41-.05.62h-.2c-1.02-1.37-1.48-3.02-1.48-5.01.1-2.88-.1-5.76-.31-8.71-.1-1.3-.05-2.54.05-3.84.2-1.71.2-3.43.15-5.14,0-.76.1-1.51.1-2.26.05-1.37,0-2.68-.26-3.98-.1-.21-.1-.55.15-.62.26-.14.26.28.41.41.46-.34.31-.96.31-1.51.41-.41.92-.34,1.23-.89.1-.21.31-.14.46,0,.97.75,1.99,1.44,2.04,3.29ZM184.88,24.68c-.05.07-.15.14-.15.07-.82-.41-1.43-.27-2.04.21-.36.41-.77.76-1.33.82.15-.55.51-.62.72-.89l.31-.34c.31-.07.51-.41.87-.69.82-.41,1.12-.27,1.63.82Z"/>
  <path class="cls-1" d="M206.44,1.49c0,.34-.05.75-.26,1.1-.61,1.3-1.33,2.68-2.04,3.91-.72,1.3-1.33,2.68-1.94,3.98-.15.34-.31.76-.51,1.1-.26.55-.66,1.03-.77,1.65-.05.55-.36.96-.46,1.58-.1,1.03-.77,1.65-1.28,2.26-.77,1.03-.82,1.99-.41,3.36.56,1.99,1.23,3.98,1.84,6.04.15.62.41,1.23.46,1.92.05.76.46,1.23.66,1.85.87,3.22,1.99,6.31,3.22,9.33.66,1.72,1.43,3.43,1.84,5.35.1.28.15.55.15.82.05.82.2,1.58.51,2.33.15.34.41.69.26,1.23-.72-.27-1.33-.27-1.69.89-.05.21-.2-.07-.31,0-.46.21-.87.14-1.33.27-.82.34-1.48-.34-2.04-1.03-.46-.55-.87-1.1-1.43-1.44-.2.21.05.62-.2.89-.56-.27-.87-.89-1.07-1.65-.61-2.4-1.17-4.87-1.69-7.34-.56-2.47-1.17-4.87-1.74-7.27-.56-2.54-1.23-5.01-1.58-7.68,0-.27-.15-.48-.26-.82-.46.41-.41.89-.41,1.44.15,2.2.31,4.46.41,6.72.1,3.64.41,7.2.31,10.77,0,.75,0,1.51-.41,2.13-.15.27-.1.62-.2.96-.1.55-.05,1.24-.77,1.24-.46,0-.26.89-.51,1.37-.56-.48-1.07.14-1.58.34-1.07.41-2.09-.21-2.3-1.65-.15-1.37-.26-2.81-.31-4.19-.15-3.29-.36-6.52-.56-9.74-.15-2.81-.26-5.63-.31-8.51,0-3.22-.15-6.45-.15-9.74-.05-2.68-.15-5.42.15-8.1.05-.55-.05-1.1-.05-1.65-.05-.55-.2-1.3-.05-1.65.46-.69.87-1.3.61-2.33-.05-.07.15-.27.31-.21.46.14.82-.07,1.18-.34.77-.55,1.48-.41,2.25-.14.56.14.92.62,1.02,1.44.2,1.65.36,3.22.36,4.87,0,.82,0,1.58.1,2.33.2,1.51.1,3.09.1,4.6.05,2.26.15,4.53.26,6.93.61-.62.92-1.37,1.28-2.06.92-1.65,1.79-3.43,2.66-5.15,1.59-3.16,3.27-6.24,5.06-9.19.56-.89,1.23-1.72,1.68-2.75.26-.48.72-.55,1.02-1.1.26-.41.87.07.92.69Z"/>
  <path class="cls-1" d="M212.51,6.64c.31.55.61,1.17,1.07,1.65.15.14.2.48.26.76.15,1.71.51,3.36.46,5.08-.15,3.43.1,6.86,0,10.29,0,.14,0,.27.21.41,1.58-1.92,3.42-2.95,5.42-3.7,1.07-.41,2.04-.14,2.55,1.23.36.07.15-.62.51-.48.2.14.36.28.36.55,0,.48.05.96.21,1.37.1.27.15.62.41.69.56.14.61.75.66,1.23.31,3.02.41,6.11.15,9.12,0,.14-.05.27,0,.34.36,1.51.05,3.02-.1,4.46-.2,1.58-.36,3.09-.87,4.6-.46,1.37-1.07,2.54-1.79,3.7-.61.96-1.33,1.44-2.15,1.78-.2.07-.46.21-.66.07-.77-.62-1.63-.48-2.4-1.03-.31-.21-.46-.48-.66-.76-.36-.55-.56-1.37-1.07-1.85-.46,1.17.1,2.47-.46,3.5-.51.14-.41-.62-.72-.82-.05.41,0,.82-.31,1.17-.87-.76-1.59-1.99-2.61-2.54-.26.27,0,.82-.36,1.1-.56-.41-.82-1.03-.77-1.92.1-1.3-.2-2.54-.2-3.84-.1-3.29-.15-6.59,0-9.88.05-1.37,0-2.74,0-4.12.05-4.74.05-9.47.05-14.13,0-2.06-.05-4.05,0-6.04,0-1.23.05-1.23.87-1.58.41-.14.82-.41,1.17-.69.36-.21.56-.14.77.27ZM217.16,24.48c-.77.75-1.48,1.65-2.1,2.61-.51.76-.71,1.58-.71,2.54,0,2.33.36,4.6.26,6.93-.05,1.51.31,2.95.25,4.46-.05,1.1,0,2.2,0,3.36.82.34,1.59,1.03,2.5,1.58.51-1.03.97-1.99,1.23-3.02.66-2.2.92-4.53,1.12-6.86.31-3.16.41-6.38.36-9.6,0-.76-.15-1.51-.2-2.27-.05-.27-.1-.55-.36-.55-.82.14-1.69.14-2.35.82Z"/>
  <path class="cls-1" d="M230.8,6.43c.2-.34.2-.82.56-.69.31.07.31.41.31.69.1.62.15,1.17.66,1.37.21.07.21.34.26.55.26,1.37.66,2.75.82,4.25.05.76-.1,1.51,0,2.26.36,1.99.2,3.98.1,5.97,0,1.17.25,2.33.15,3.71.72-.69,1.07-1.51,1.53-2.26.56-.96,1.17-1.85,1.94-2.54,1.02-.89,2.2-1.17,3.42-.48,1.02.55,1.69,1.58,2.45,2.61.15.28.15.62.1.96,0,.76,0,1.44-.05,2.2,0,.69.15,1.37.15,2.06,0,1.51-.2,2.95-.2,4.46-.05,1.99.15,3.91.31,5.83.05,1.03.1,1.99.05,3.02-.05.96.05,1.99-.1,2.95-.05.48,0,.96.31,1.37.15.14.31-.07.46-.21.31-.21.05.55,1.02-.69,1.02-1.37,1.99-1.71,3.17-3.09.77-.82,1.48-1.58,2.45-2.13-.05.14-.05,1.37-.1,1.44-.82.69-1.43,1.37-1.89,2.54-.15.28-.46.96-.71,1.03-.71.21-.92.76-1.38,1.44-.36.55-.82.89-1.12,1.51-.36.69-.77,1.23-1.28,1.71-1.33,1.17-.36.14-1.63,1.51-.31.34-.56.55-.92.41l-.36-.07c-.31,0-.46.69-.76.34-.46-.48-1.02-.82-1.28-1.58-.05-.21-.15-.34-.2-.55-.31-1.65-.71-3.29-.56-5.08.1-1.37.2-2.81.36-4.19.05-.96.1-1.92-.05-2.81-.36-2.27-.1-4.46-.05-6.73.05-2.4.36-4.18.61-6.59.1-.55.1-1.1-.31-1.37-.31-.21-.61-.41-.92-.21-.26.14-.41.34-.61.62l-.92,1.1c-.1.14-.21.14-.41.41-.51.62-.92,1.37-1.48,2.06-.2.21-.26.41-.31.62-.56,1.72-.77,3.02-.77,4.87,0,1.71.15,3.36.36,5.01.25,2.06.25,4.19-.05,6.24-.15.89-.05,1.85.05,2.81.05.89,0,1.78-.15,2.68-.05.48-.1,1.03-.66,1.03-.41,0-.2.82-.66.82-.41-.28-.82-.62-1.33-.14-.15.14-.36.07-.46-.14-.66-.89-1.28-1.78-1.28-3.15-.05-.41-.05-.89-.25-1.24-.46-.69-.46-1.58-.46-2.4,0-2.95-.05-5.83,0-8.78,0-2.26-.1-4.53-.26-6.79-.26-2.81-.2-5.63-.2-8.44,0-3.36,0-6.66.05-9.95,0-1.1.15-2.13.41-3.16.82-.21,1.53.07,2.1.96Z"/>
</svg>